Intent on offering his fiancée a better life, countryman heads for Rio de Janeiro in search of a place in the sun. With no contacts in the big city, he gets involved with the crime underworld connected with illegal betting. Written by <lukejoplin@infolink.com.br>
 
http://www.imdb.com/title/tt0188407/plotsummary

General 
Unique ID : 313663391232193229905405711008730145087 (0xEBF95F2BDFB990E2CF1C0BB49377613F) 
Complete name : Amei.Um.Bicheiro.1952.DVDRip.x264.mkv 
Format : Matroska 
Format version : Version 2 
File size : 1.28 GiB 
Duration : 1h 28mn 
Overall bit rate : 2 065 Kbps 
Writing application : HandBrake 0.9.8 
Writing library : libmkv 0.6.5 

Video 
ID : 1 
Format : AVC 
Format/Info : Advanced Video Codec 
Format profile : High@L3.1 
Format settings, CABAC : Yes 
Format settings, ReFrames : 11 frames 
Codec ID : V_MPEG4/ISO/AVC 
Duration : 1h 28mn 
Bit rate : 1 800 Kbps 
Width : 714 pixels 
Height : 480 pixels 
Display aspect ratio : 4:3 
Original display aspect ratio : 4:3 
Frame rate : 23.976 fps 
Color space : YUV 
Chroma subsampling : 4:2:0 
Bit depth : 8 bits 
Scan type : Progressive 
Bits/(Pixel*Frame) : 0.219 
Stream size : 1.11 GiB (87%) 
Writing library : x264 core 120 
Encoding settings : cabac=1 / ref=11 / deblock=1:-3:-3 / analyse=0x3:0x133 / me=umh / subme=11 / psy=1 / psy_rd=1.10:0.00 / mixed_ref=1 / me_range=32 / chroma_me=1 / trellis=2 / 8x8dct=1 / cqm=0 / deadzone=21,11 / fast_pskip=0 / chroma_qp_offset=-2 / threads=4 / sliced_threads=0 / nr=0 / decimate=1 / interlaced=0 / bluray_compat=0 / constrained_intra=0 / bframes=9 / b_pyramid=2 / b_adapt=2 / b_bias=0 / direct=3 / weightb=1 / open_gop=0 / weightp=2 / keyint=240 / keyint_min=24 / scenecut=40 / intra_refresh=0 / rc_lookahead=60 / rc=crf / mbtree=1 / crf=18.5 / qcomp=0.60 / qpmin=3 / qpmax=69 / qpstep=4 / ip_ratio=1.40 / aq=2:1.20 
Language : English 
Default : Yes 
Forced : No 
Color primaries : BT.601-6 525, BT.1358 525, BT.1700 NTSC, SMPTE 170M 
Transfer characteristics : BT.709-5, BT.1361 
Matrix coefficients : BT.601-6 525, BT.1358 525, BT.1700 NTSC, SMPTE 170M 

Audio 
ID : 2 
Format : AC-3 
Format/Info : Audio Coding 3 
Mode extension : CM (complete main) 
Format settings, Endianness : Big 
Codec ID : A_AC3 
Duration : 1h 28mn 
Bit rate mode : Constant 
Bit rate : 224 Kbps 
Channel(s) : 2 channels 
Channel positions : Front: L R 
Sampling rate : 48.0 KHz 
Bit depth : 16 bits 
Compression mode : Lossy 
Stream size : 142 MiB (11%) 
Language : Portuguese 
Default : Yes 
Forced : No 

Menu 
00:00:00.000 : Chapter 1 
00:09:14.428 : Chapter 2 
00:20:35.525 : Chapter 3 
00:30:14.979 : Chapter 4 
00:40:12.785 : Chapter 5 
00:48:27.988 : Chapter 6 
00:59:53.548 : Chapter 7 
01:10:13.000 : Chapter 8 
01:20:37.123 : Chapter 9 
01:28:28.261 : Chapter 10 

My rip.